<svg width="25" height="24" viewBox="0 0 25 24" fill="none" xmlns="http://www.w3.org/2000/svg">
<g clip-path="url(#clip0)">
<mask id="mask0" mask-type="alpha" maskUnits="userSpaceOnUse" x="0" y="0" width="25" height="24">
<path fill-rule="evenodd" clip-rule="evenodd" d="M17.3032 23.8077C17.6679 23.9506 18.0841 23.9415 18.4524 23.7631L23.2221 21.455C23.7234 21.2129 24.0419 20.7023 24.0419 20.1425V4.49164C24.0419 3.9319 23.7234 3.42222 23.2221 3.17921L18.4524 0.871072C17.9692 0.637164 17.4037 0.694503 16.9793 1.00486C16.9186 1.04946 16.8607 1.09861 16.8064 1.15322L7.67701 9.53113L3.70002 6.49397C3.32992 6.21091 2.81233 6.23457 2.46847 6.54949L1.19257 7.71629C0.771801 8.10129 0.770896 8.76661 1.19077 9.15251L4.6393 12.3171L1.19077 15.4817C0.770896 15.8676 0.770896 16.5329 1.19167 16.9179L2.46756 18.0847C2.81142 18.3996 3.32902 18.4224 3.69912 18.1402L7.67611 15.104L16.8064 23.4819C16.9512 23.6266 17.1213 23.7367 17.3032 23.8077ZM18.2543 7.02822L11.3264 12.3171L18.2543 17.6069V7.02822Z" fill="white"/>
</mask>
<g mask="url(#mask0)">
<path d="M23.222 3.18288L18.4487 0.8711C17.8967 0.603517 17.2362 0.716375 16.8027 1.15234L1.17709 15.4817C0.757225 15.8676 0.757224 16.5329 1.178 16.9179L2.45389 18.0847C2.79775 18.3996 3.31625 18.4224 3.68635 18.1402L22.5035 3.78266C23.1351 3.3012 24.0418 3.75354 24.0418 4.55083V4.49531C24.0418 3.93557 23.7224 3.42498 23.222 3.18288Z" fill="#0065A9"/>
<path d="M23.222 21.4513L18.4487 23.7631C17.8967 24.0307 17.2362 23.9178 16.8027 23.4819L1.17709 9.15251C0.757224 8.76751 0.757224 8.10129 1.178 7.7172L2.45389 6.55039C2.79775 6.23548 3.31625 6.21273 3.68635 6.49487L22.5026 20.8525C23.1342 21.3339 24.0409 20.8816 24.0409 20.0843V20.1398C24.0418 20.6986 23.7224 21.2092 23.222 21.4513Z" fill="#007ACC"/>
<path d="M18.4487 23.7631C17.8958 24.0307 17.2361 23.9178 16.8018 23.481C17.3356 24.0179 18.2496 23.6375 18.2496 22.8775V1.75573C18.2496 0.995753 17.3356 0.615311 16.8018 1.1523C17.2352 0.716338 17.8958 0.603479 18.4487 0.870153L23.221 3.17829C23.7224 3.4213 24.0418 3.93098 24.0418 4.49072V20.1425C24.0418 20.7023 23.7233 21.212 23.221 21.455L18.4487 23.7631Z" fill="#1F9CF0"/>
<g opacity="0.25">
<path opacity="0.25" fill-rule="evenodd" clip-rule="evenodd" d="M17.2889 23.8084C17.6536 23.9513 18.0698 23.9422 18.4381 23.7638L23.2078 21.4556C23.7091 21.2135 24.0276 20.7029 24.0276 20.1432V4.4923C24.0276 3.93256 23.7091 3.42288 23.2078 3.17987L18.4381 0.871735C17.9549 0.637827 17.3893 0.695167 16.9649 1.00553C16.9043 1.05012 16.8464 1.09927 16.7921 1.15388L7.66268 9.53179L3.68569 6.49463C3.31559 6.21157 2.79799 6.23524 2.45414 6.55015L1.17824 7.71696C0.757469 8.10195 0.757469 8.76727 1.17734 9.15317L4.62587 12.3178L1.17734 15.4823C0.757469 15.8682 0.757469 16.5336 1.17824 16.9186L2.45414 18.0854C2.79799 18.4003 3.31559 18.423 3.68569 18.1409L7.66268 15.1046L16.793 23.4825C16.9369 23.6273 17.107 23.7374 17.2889 23.8084ZM18.2399 7.02889L11.3121 12.3178L18.2399 17.6075V7.02889Z" fill="url(#paint0_linear)"/>
</g>
</g>
</g>
<defs>
<linearGradient id="paint0_linear" x1="12.445" y1="0.72795" x2="12.445" y2="23.9076" gradientUnits="userSpaceOnUse">
<stop stop-color="white"/>
<stop offset="1" stop-color="white" stop-opacity="0"/>
</linearGradient>
<clipPath id="clip0">
<rect width="23.1796" height="23.1796" fill="white" transform="translate(0.862061 0.727264)"/>
</clipPath>
</defs>
</svg>
