<svg width="17" height="25" viewBox="0 0 17 25" fill="none" xmlns="http://www.w3.org/2000/svg">
<g clip-path="url(#clip0)">
<path d="M8.35376 12.0566C8.35376 9.84797 10.1715 8.0549 12.4106 8.0549C14.6497 8.0549 16.4674 9.84797 16.4674 12.0566C16.4674 14.2653 14.6497 16.0584 12.4106 16.0584C10.1715 16.0584 8.35376 14.2653 8.35376 12.0566Z" fill="#1ABCFE"/>
<path d="M0.252197 20.0483C0.252197 17.8396 2.06994 16.0465 4.30902 16.0465H8.36585V20.0483C8.36585 22.2569 6.5481 24.05 4.30902 24.05C2.06994 24.05 0.252197 22.2569 0.252197 20.0483Z" fill="#0ACF83"/>
<path d="M8.35376 0.0632891V8.0549H12.4106C14.6497 8.0549 16.4674 6.26184 16.4674 4.05316C16.4674 1.84448 14.6497 0.0514145 12.4106 0.0514145H8.35376V0.0632891Z" fill="#FF7262"/>
<path d="M0.252197 4.06663C0.252197 6.27531 2.06994 8.06837 4.30902 8.06837H8.36585V0.0767569H4.30902C2.06994 0.0648823 0.252197 1.85795 0.252197 4.06663Z" fill="#F24E1E"/>
<path d="M0.252197 12.0567C0.252197 14.2653 2.06994 16.0584 4.30902 16.0584H8.36585V8.06679H4.30902C2.06994 8.05491 0.252197 9.84798 0.252197 12.0567Z" fill="#A259FF"/>
</g>
<defs>
<clipPath id="clip0">
<rect width="16.2153" height="23.9986" fill="white" transform="translate(0.252197 0.0514221)"/>
</clipPath>
</defs>
</svg>
