<svg width="26" height="24" viewBox="0 0 26 24" fill="none" xmlns="http://www.w3.org/2000/svg">
<g clip-path="url(#clip0)">
<path d="M6.22522 1.39113L13.2704 0.650024L20.3163 1.39113L25.7708 8.67318L13.2704 23.15L0.770752 8.67318L6.22522 1.39113Z" fill="#FDB300"/>
<path d="M5.83357 8.67323L13.2704 23.1501L0.770752 8.67323H5.83357Z" fill="#EA6C00"/>
<path d="M20.7071 8.67323L13.2703 23.1501L25.7706 8.67323H20.7071Z" fill="#EA6C00"/>
<path d="M5.8335 8.67323H20.7072L13.2704 23.1501L5.8335 8.67323Z" fill="#FDAD00"/>
<path d="M13.2704 0.650009L6.22514 1.39111L5.8335 8.67316L13.2704 0.650009Z" fill="#FDD231"/>
<path d="M13.2703 0.650009L20.3161 1.39111L20.7071 8.67316L13.2703 0.650009Z" fill="#FDD231"/>
<path d="M25.7708 8.67316L20.3157 1.39111L20.7073 8.67316H25.7708Z" fill="#FDAD00"/>
<path d="M0.770752 8.67316L6.22522 1.39111L5.83357 8.67316H0.770752Z" fill="#FDAD00"/>
<path d="M13.2704 0.650009L5.8335 8.67316H20.7072L13.2704 0.650009Z" fill="#FEEEB7"/>
</g>
<defs>
<clipPath id="clip0">
<rect width="25" height="22.5" fill="white" transform="translate(0.770752 0.650024)"/>
</clipPath>
</defs>
</svg>
