<svg width="25" height="25" viewBox="0 0 25 25" fill="none" xmlns="http://www.w3.org/2000/svg">
<g clip-path="url(#clip0)">
<path d="M22.6354 0.0500183H2.9852C1.78483 0.0500183 0.810303 1.02455 0.810303 2.22492V21.8751C0.810303 23.0779 1.78483 24.05 2.9852 24.05H22.6354C23.8382 24.05 24.8103 23.0755 24.8103 21.8751V2.22492C24.8103 1.02455 23.8358 0.0500183 22.6354 0.0500183Z" fill="#DC395F"/>
<path d="M9.30128 6.95521C10.0991 6.95521 10.7668 6.32925 10.7668 5.50937C10.7668 4.68948 10.0991 4.06598 9.30128 4.06598C8.50349 4.06598 7.8358 4.69194 7.8358 5.50937C7.8358 6.32925 8.50349 6.95521 9.30128 6.95521ZM6.26231 14.6901C6.1764 15.0559 6.13221 15.4535 6.13221 15.7751C6.13221 17.0466 6.82199 17.8911 8.28747 17.8911C9.50257 17.8911 10.4894 17.1694 11.1988 16.0034L10.7643 17.7438H13.1798L14.5593 12.2084C14.9055 10.8067 15.5731 10.0801 16.587 10.0801C17.3847 10.0801 17.8806 10.576 17.8806 11.3958C17.8806 11.6339 17.8585 11.8917 17.7726 12.1715L17.0607 14.7146C16.9527 15.0804 16.911 15.4486 16.911 15.7923C16.911 17 17.6229 17.8837 19.1104 17.8837C20.382 17.8837 21.3958 17.0638 21.9555 15.1025L21.0079 14.7367C20.5342 16.05 20.1242 16.2881 19.8002 16.2881C19.4762 16.2881 19.3043 16.0721 19.3043 15.6425C19.3043 15.4486 19.3485 15.2326 19.4124 14.9748L20.1021 12.4956C20.274 11.9138 20.3403 11.3983 20.3403 10.9221C20.3403 9.06874 19.2184 8.09912 17.861 8.09912C16.5894 8.09912 15.2958 9.24548 14.6477 10.4532L15.1215 8.28568H11.4345L10.9165 10.1955H12.6422L11.5793 14.4471C10.7447 16.3004 9.21291 16.3323 9.02144 16.2881C8.70478 16.2169 8.50349 16.0967 8.50349 15.6867C8.50349 15.4511 8.54768 15.1099 8.65323 14.6999L10.2709 8.28568H6.1764L5.65845 10.1955H7.36204L6.26231 14.6901Z" fill="white"/>
</g>
<defs>
<clipPath id="clip0">
<rect width="24" height="24" fill="white" transform="translate(0.810303 0.0500183)"/>
</clipPath>
</defs>
</svg>
