<svg width="23" height="32" viewBox="0 0 23 32" fill="none" xmlns="http://www.w3.org/2000/svg">
<path d="M6.74139 3.19172V1.83519H8.67664V0.35083H5.28979V4.54558H8.67664V3.19172H6.74139Z" fill="white"/>
<path d="M12.1578 1.83519H13.5106V0.35083H10.1238C10.1238 0.35083 10.1238 1.09569 10.1238 1.83519C10.5767 2.2983 10.8129 2.52048 11.4687 3.19039C11.0858 3.19039 10.1238 3.19172 10.1238 3.19172V4.54558H13.5106V3.19172L12.1578 1.83519Z" fill="white"/>
<path d="M16.959 1.83519H18.3118V0.35083H14.9243C14.9243 0.35083 14.9243 1.09569 14.9243 1.83519C15.3772 2.2983 15.6141 2.52048 16.2692 3.19039C15.8864 3.19039 14.9243 3.19172 14.9243 3.19172V4.54558H18.3118V3.19172L16.959 1.83519Z" fill="white"/>
<path d="M20.7147 29.3286L11.8003 31.7834L2.88583 29.3286L0.828857 6.53992H22.7723L20.7147 29.3286Z" fill="#2062AF"/>
<path d="M11.8003 8.38565V29.8252L11.8206 29.8312L19.0347 27.8449L20.6997 8.38565H11.8003Z" fill="#3C9CD7"/>
<path d="M11.7922 14.0835L5.41187 16.8013L5.62326 19.4909L11.7922 16.7939L18.3545 13.9256L18.6261 11.173L11.7922 14.0835Z" fill="white"/>
<path d="M18.6261 11.173L11.7922 14.0835V16.7939L18.3545 13.9256L18.6261 11.173Z" fill="url(#paint0_linear)"/>
<path d="M5.42163 16.8013L5.63302 19.4909L15.0985 19.5224L14.8865 23.1088L11.7719 24.0055L8.77837 23.2326L8.59643 21.006H5.81496L6.17754 25.3045L11.8026 27.0051L17.3963 25.3353L18.1221 16.8013H5.42163Z" fill="url(#paint1_linear)"/>
<path d="M4.83716 11.173H18.626L18.3544 13.9256H5.16963L4.83716 11.173Z" fill="url(#paint2_linear)"/>
<path opacity="0.05" d="M11.7921 11.173H4.83716L5.16963 13.9256H11.7921V11.173Z" fill="black"/>
<defs>
<linearGradient id="paint0_linear" x1="15.2093" y1="16.7941" x2="15.2093" y2="11.1733" gradientUnits="userSpaceOnUse">
<stop offset="0.3865" stop-color="#D1D3D4" stop-opacity="0"/>
<stop offset="1" stop-color="#D1D3D4"/>
</linearGradient>
<linearGradient id="paint1_linear" x1="5.42164" y1="21.903" x2="18.1224" y2="21.903" gradientUnits="userSpaceOnUse">
<stop stop-color="#E8E7E5"/>
<stop offset="1" stop-color="white"/>
</linearGradient>
<linearGradient id="paint2_linear" x1="4.83726" y1="12.5493" x2="18.6262" y2="12.5493" gradientUnits="userSpaceOnUse">
<stop stop-color="#E8E7E5"/>
<stop offset="1" stop-color="white"/>
</linearGradient>
</defs>
</svg>
