<svg width="28" height="11" viewBox="0 0 28 11" fill="none" xmlns="http://www.w3.org/2000/svg">
<path d="M0.810303 0.63446H27.081V9.29512H13.9456V10.7386H8.10771V9.29512H0.810303V0.63446ZM2.26979 7.85168H5.18875V3.52135H6.64823V7.85168H8.10771V2.0779H2.26979V7.85168ZM9.5672 2.0779V9.29512H12.4862V7.85168H15.4051V2.0779H9.5672ZM12.4862 3.52135H13.9456V6.40824H12.4862V3.52135ZM16.8646 2.0779V7.85168H19.7836V3.52135H21.2431V7.85168H22.7025V3.52135H24.162V7.85168H25.6215V2.0779H16.8646Z" fill="white"/>
<path d="M2.26978 7.85166H5.18874V3.52133H6.64822V7.85166H8.1077V2.07788H2.26978V7.85166Z" fill="#CB3837"/>
<path d="M9.56714 2.07788V9.2951H12.4861V7.85166H15.4051V2.07788H9.56714ZM13.9456 6.40821H12.4861V3.52133H13.9456V6.40821Z" fill="#CB3837"/>
<path d="M16.8645 2.07788V7.85166H19.7835V3.52133H21.2429V7.85166H22.7024V3.52133H24.1619V7.85166H25.6214V2.07788H16.8645Z" fill="#CB3837"/>
</svg>
