<svg width="25" height="25" viewBox="0 0 25 25" fill="none" xmlns="http://www.w3.org/2000/svg">
<g clip-path="url(#clip0)">
<path d="M24.8716 0.512634H0.871582V24.5126H24.8716V0.512634Z" fill="#F7DF1E"/>
<path d="M16.9936 19.2627C17.477 20.0521 18.106 20.6323 19.2183 20.6323C20.1528 20.6323 20.7498 20.1652 20.7498 19.5199C20.7498 18.7465 20.1364 18.4726 19.1079 18.0227L18.5441 17.7808C16.9166 17.0875 15.8355 16.2189 15.8355 14.3827C15.8355 12.6913 17.1243 11.4037 19.1383 11.4037C20.5723 11.4037 21.6031 11.9027 22.346 13.2094L20.5898 14.337C20.2031 13.6437 19.786 13.3705 19.1383 13.3705C18.4778 13.3705 18.0591 13.7896 18.0591 14.337C18.0591 15.0136 18.4782 15.2875 19.4458 15.7065L20.0096 15.9481C21.9258 16.7698 23.0077 17.6075 23.0077 19.4909C23.0077 21.5214 21.4126 22.6338 19.2705 22.6338C17.1761 22.6338 15.8229 21.6357 15.1608 20.3275L16.9936 19.2627ZM9.02673 19.4582C9.38101 20.0867 9.7033 20.6182 10.4782 20.6182C11.2191 20.6182 11.6865 20.3283 11.6865 19.201V11.5324H13.9418V19.2315C13.9418 21.5667 12.5726 22.6296 10.5742 22.6296C8.76844 22.6296 7.72273 21.6951 7.19092 20.5694L9.02673 19.4582Z" fill="black"/>
</g>
<defs>
<clipPath id="clip0">
<rect x="0.871582" y="0.512634" width="24" height="24" rx="1.29722" fill="white"/>
</clipPath>
</defs>
</svg>
