<svg width="25" height="25" viewBox="0 0 25 25" fill="none" xmlns="http://www.w3.org/2000/svg">
<path d="M4.86035 0.615601H20.3604C22.7104 0.615601 24.6104 2.56432 24.6104 4.97458V20.2566C24.6104 22.6669 22.7104 24.6156 20.3604 24.6156H4.86035C2.51035 24.6156 0.610352 22.6669 0.610352 20.2566V4.97458C0.610352 2.56432 2.51035 0.615601 4.86035 0.615601Z" fill="#551B1B"/>
<path d="M12.2405 15.0149H8.52054L7.76054 17.4252C7.74054 17.5175 7.66054 17.579 7.57054 17.5688H5.69054C5.58054 17.5688 5.55054 17.5072 5.58054 17.3841L8.80054 7.87645C8.83054 7.77388 8.86054 7.66106 8.90054 7.53799C8.94054 7.3226 8.96054 7.09696 8.96054 6.87132C8.95054 6.82004 8.99054 6.76876 9.04054 6.7585C9.05054 6.7585 9.06054 6.7585 9.07054 6.7585H11.6305C11.7105 6.7585 11.7505 6.78927 11.7605 6.84055L15.4105 17.4047C15.4405 17.5175 15.4105 17.5688 15.3105 17.5688H13.2205C13.1505 17.579 13.0805 17.5277 13.0605 17.4559L12.2405 15.0149ZM9.10054 12.9329H11.6405C11.5805 12.7175 11.5005 12.4611 11.4105 12.1944C11.3205 11.9175 11.2305 11.62 11.1405 11.3123C11.0405 10.9944 10.9505 10.6867 10.8505 10.3688C10.7505 10.0508 10.6605 9.75337 10.5805 9.45593C10.5005 9.16876 10.4305 8.90209 10.3605 8.65594H10.3405C10.2505 9.09696 10.1405 9.53799 10.0005 9.97901C9.85054 10.4713 9.70054 10.9841 9.54054 11.497C9.40054 12.02 9.25054 12.5021 9.10054 12.9329Z" fill="#FF9A00"/>
<path d="M17.5904 8.51306C17.2604 8.52332 16.9404 8.38999 16.7004 8.15409C16.4704 7.89768 16.3504 7.55922 16.3604 7.2105C16.3504 6.86178 16.4804 6.53358 16.7204 6.29768C16.9604 6.06178 17.2804 5.93871 17.6104 5.93871C18.0004 5.93871 18.3004 6.06178 18.5204 6.29768C18.7404 6.54383 18.8604 6.87204 18.8504 7.2105C18.8604 7.55922 18.7404 7.89768 18.5004 8.15409C18.2704 8.40024 17.9304 8.53358 17.5904 8.51306ZM16.4704 17.4156V9.51819C16.4704 9.41563 16.5104 9.3746 16.6004 9.3746H18.5804C18.6704 9.3746 18.7104 9.42589 18.7104 9.51819V17.4156C18.7104 17.5285 18.6704 17.5797 18.5804 17.5797H16.6204C16.5204 17.5797 16.4704 17.5182 16.4704 17.4156Z" fill="#FF9A00"/>
</svg>
