<svg width="23" height="32" viewBox="0 0 23 32" fill="none" xmlns="http://www.w3.org/2000/svg">
<path d="M2.11696 29.2585L0.065918 6.52795H22.6024L20.5493 29.2554L11.3202 31.7834L2.11696 29.2585Z" fill="#E44D26"/>
<path d="M11.3342 29.8512L18.7915 27.8081L20.5463 8.38666H11.3342V29.8512Z" fill="#F16529"/>
<path d="M11.334 16.817H7.60041L7.3426 13.9624H11.334V11.1745H11.3241H4.25928L4.32685 11.9223L5.02023 19.6048H11.334V16.817Z" fill="#EBEBEB"/>
<path d="M11.3342 24.0572L11.3217 24.0608L8.17963 23.2221L7.979 20.9987H6.45189H5.14673L5.54176 25.3762L11.3212 26.9617L11.3342 26.9581V24.0572Z" fill="#EBEBEB"/>
<path d="M2.16284 0.350845H3.59639V1.75041H4.90779V0.350845H6.34186V4.58961H4.90831V3.17001H3.59691V4.58961H2.16284V0.350845Z" fill="white"/>
<path d="M8.2276 1.75658H6.96558V0.350845H10.9242V1.75658H9.66114V4.58961H8.22708L8.2276 1.75658Z" fill="white"/>
<path d="M11.5525 0.350845H13.0474L13.9669 1.84029L14.8853 0.350845H16.3807V4.58961H14.9529V2.48846L13.9664 3.99537H13.9419L12.9549 2.48846V4.58961H11.552V0.350845H11.5525Z" fill="white"/>
<path d="M17.095 0.350845H18.529V3.1885H20.5453V4.58961H17.095V0.350845Z" fill="white"/>
<path d="M11.3245 16.817V19.6048H14.7987L14.4712 23.2206L11.3245 24.0598V26.9601L17.1086 25.3762L17.1507 24.9052L17.8139 17.5658L17.8825 16.817H17.1226H11.3245Z" fill="white"/>
<path d="M11.3245 11.1745V12.9059V13.9557V13.9624H18.1304H18.1393L18.1959 13.3358L18.3248 11.9223L18.3919 11.1745H11.3245Z" fill="white"/>
</svg>
