<svg width="25" height="25" viewBox="0 0 25 25" fill="none" xmlns="http://www.w3.org/2000/svg">
<rect x="0.870605" y="0.545593" width="24" height="24" rx="2.59444" fill="#1D1D1D"/>
<path d="M22.9248 12.5436C22.9248 13.8464 21.2566 15.081 18.699 15.8467C19.2892 18.3961 19.0269 20.4245 17.8711 21.0738C17.6047 21.2262 17.2932 21.2983 16.953 21.2983V20.4044C17.1415 20.4044 17.2932 20.3683 17.4202 20.3002C17.9777 19.9875 18.2195 18.797 18.0309 17.2657C17.9859 16.8889 17.9121 16.492 17.8219 16.0872C17.0186 16.2796 16.1414 16.4279 15.2192 16.5241C14.6659 17.2657 14.0921 17.9391 13.5142 18.5284C14.8504 19.743 16.1046 20.4084 16.9571 20.4084V21.3023C15.8299 21.3023 14.3544 20.5167 12.8625 19.1537C11.3706 20.5086 9.89506 21.2863 8.76793 21.2863V20.3924C9.61635 20.3924 10.8746 19.731 12.2108 18.5244C11.637 17.9351 11.0632 17.2657 10.5181 16.5241C9.59176 16.4279 8.71465 16.2796 7.91131 16.0832C7.81704 16.484 7.74736 16.8728 7.69817 17.2456C7.50554 18.7769 7.74326 19.9675 8.29658 20.2842C8.41954 20.3563 8.57939 20.3884 8.76793 20.3884V21.2823C8.42364 21.2823 8.11214 21.2101 7.84163 21.0578C6.6899 20.4084 6.43168 18.3841 7.02599 15.8426C4.47661 15.073 2.81665 13.8424 2.81665 12.5436C2.81665 11.2408 4.48481 10.0061 7.04239 9.2405C6.45218 6.69104 6.71449 4.6627 7.87032 4.01331C8.13673 3.86098 8.44823 3.78882 8.79252 3.78882C9.91966 3.78882 11.3952 4.57451 12.8871 5.93743C14.379 4.58252 15.8545 3.80486 16.9817 3.80486C17.326 3.80486 17.6375 3.87701 17.908 4.02934C19.0597 4.67873 19.3179 6.70307 18.7236 9.24451C21.2648 10.0102 22.9248 11.2448 22.9248 12.5436ZM17.5883 15.2173C17.4366 14.7002 17.2481 14.1671 17.035 13.6339C16.8669 13.9546 16.6907 14.2753 16.498 14.596C16.3095 14.9167 16.1087 15.2293 15.9078 15.534C16.4898 15.4498 17.0514 15.3456 17.5883 15.2173ZM15.7111 10.9482C15.3914 10.407 15.0635 9.8939 14.7233 9.41688C14.1126 9.36477 13.4937 9.33671 12.8707 9.33671C12.2518 9.33671 11.6329 9.36477 11.0263 9.41287C10.6861 9.88989 10.3541 10.399 10.0344 10.9361C9.72292 11.4613 9.44011 11.9944 9.1819 12.5316C9.43601 13.0687 9.72292 13.6059 10.0303 14.131C10.35 14.6721 10.6779 15.1852 11.0181 15.6623C11.6288 15.7144 12.2477 15.7424 12.8707 15.7424C13.4896 15.7424 14.1085 15.7144 14.7151 15.6663C15.0553 15.1892 15.3873 14.6802 15.707 14.143C16.0185 13.6179 16.3013 13.0847 16.5595 12.5476C16.3013 12.0104 16.0185 11.4733 15.7111 10.9482ZM17.035 11.4693C17.2563 10.9321 17.4448 10.395 17.6006 9.87386C17.0637 9.74558 16.498 9.63735 15.9119 9.55317C16.1128 9.86183 16.3136 10.1785 16.5021 10.5032C16.6907 10.8239 16.8669 11.1486 17.035 11.4693ZM12.8789 7.19211C12.4977 7.57694 12.1165 8.00586 11.7395 8.47486C12.1083 8.45883 12.4854 8.4468 12.8666 8.4468C13.2519 8.4468 13.6331 8.45482 14.006 8.47486C13.6372 8.00586 13.256 7.57694 12.8789 7.19211ZM9.82949 9.55317C9.24747 9.63735 8.68596 9.74157 8.14903 9.86985C8.30068 10.387 8.48922 10.9201 8.70235 11.4532C8.8704 11.1326 9.04664 10.8119 9.23928 10.4912C9.43191 10.1705 9.62865 9.85782 9.82949 9.55317ZM12.8584 17.895C13.2396 17.5102 13.6208 17.0813 13.9978 16.6123C13.629 16.6283 13.2519 16.6404 12.8707 16.6404C12.4854 16.6404 12.1043 16.6323 11.7313 16.6123C12.1002 17.0813 12.4813 17.5102 12.8584 17.895ZM9.82539 15.534C9.62455 15.2253 9.42372 14.9086 9.23518 14.5839C9.04664 14.2633 8.8704 13.9426 8.70235 13.6219C8.48102 14.159 8.29248 14.6962 8.13673 15.2173C8.67366 15.3416 9.23928 15.4498 9.82539 15.534ZM6.11608 10.5152C4.66515 11.1205 3.72656 11.9142 3.72656 12.5436C3.72656 13.1729 4.66515 13.9706 6.11608 14.5719C6.46857 14.7202 6.85385 14.8525 7.25142 14.9768C7.48504 14.1911 7.79244 13.3734 8.17362 12.5356C7.79654 11.7018 7.49324 10.888 7.26371 10.1064C6.85795 10.2306 6.47267 10.3669 6.11608 10.5152ZM8.32117 4.78696C7.76375 5.09963 7.52193 6.29018 7.71047 7.82146C7.75556 8.19827 7.82933 8.59512 7.9195 8.99999C8.72284 8.80757 9.59996 8.65926 10.5222 8.56305C11.0755 7.82146 11.6493 7.14802 12.2272 6.55876C10.891 5.34416 9.63685 4.67873 8.78432 4.67873C8.59988 4.68274 8.44413 4.71882 8.32117 4.78696ZM18.0432 7.84151C18.2359 6.31023 17.9981 5.11967 17.4448 4.803C17.3219 4.73084 17.162 4.69877 16.9735 4.69877C16.1251 4.69877 14.8668 5.36019 13.5306 6.56677C14.1044 7.15604 14.6782 7.82547 15.2233 8.56706C16.1496 8.66326 17.0268 8.81158 17.8301 9.008C17.9244 8.60314 17.9981 8.2143 18.0432 7.84151ZM19.6212 10.5152C19.2687 10.3669 18.8835 10.2346 18.4859 10.1104C18.2523 10.896 17.9449 11.7138 17.5637 12.5516C17.9408 13.3854 18.2441 14.1991 18.4736 14.9808C18.8794 14.8565 19.2646 14.7202 19.6253 14.5719C21.0763 13.9666 22.0149 13.1729 22.0149 12.5436C22.0108 11.9142 21.0722 11.1165 19.6212 10.5152Z" fill="#61DAFB"/>
<path d="M12.8665 10.7117C13.901 10.7117 14.7396 11.5318 14.7396 12.5436C14.7396 13.5553 13.901 14.3755 12.8665 14.3755C11.832 14.3755 10.9934 13.5553 10.9934 12.5436C10.9934 11.5318 11.832 10.7117 12.8665 10.7117Z" fill="#61DAFB"/>
</svg>
