<svg width="25" height="24" viewBox="0 0 25 24" fill="none" xmlns="http://www.w3.org/2000/svg">
<path d="M23.6016 11.3476L13.3976 1.31395C12.8104 0.736495 11.8564 0.736495 11.2692 1.31395L9.15091 3.39684L11.8385 6.03953C12.4642 5.83276 13.1797 5.97145 13.6772 6.46065C14.1772 6.95237 14.3183 7.66348 14.1029 8.28128L16.693 10.8282C17.3187 10.6163 18.0419 10.7525 18.5445 11.2467C19.2446 11.9352 19.2446 13.0497 18.5445 13.7381C17.8444 14.4266 16.7109 14.4266 16.0108 13.7381C15.4851 13.2212 15.3543 12.4597 15.621 11.8217L13.2053 9.44629V15.6975C13.3771 15.7807 13.5361 15.8916 13.6797 16.0303C14.3798 16.7187 14.3798 17.8333 13.6797 18.5217C12.9796 19.2101 11.8462 19.2101 11.1461 18.5217C10.446 17.8333 10.446 16.7187 11.1461 16.0303C11.3179 15.8614 11.5179 15.7328 11.7333 15.647V9.33786C11.5205 9.25212 11.3204 9.12351 11.1461 8.95456C10.6152 8.4351 10.4896 7.66852 10.7614 7.02802L8.10718 4.42063L1.11134 11.3022C0.524083 11.8797 0.524083 12.8177 1.11134 13.3952L11.3153 23.4289C11.9026 24.0063 12.8565 24.0063 13.4438 23.4289L23.6016 13.4406C24.1889 12.8631 24.1889 11.9251 23.6016 11.3476Z" fill="#F05133"/>
</svg>
